# xmcd CD database file
#
# Track frame offsets:
#	150
#	12752
#	32012
#	43000
#	56905
#	72032
#	84647
#	95455
#	121700
#	137932
#	147087
#
# Disc length: 2155 seconds
#
# Revision: 3
# Processed by: cddbd v1.5PL3 Copyright (c) Steve Scherf et al.
# Submitted via: CDex 1.51
#
DISCID=9108690b
DTITLE=The Austin Lounge Lizards - Paint Me On Velvet
DYEAR=1900
DGENRE=Country
TTITLE0=Boudreaux Was A Nutcase
TTITLE1=Paint Me On Velvet
TTITLE2=Little Fallen Angel
TTITLE3=Put The Oak Ridge Boys In The Slammer
TTITLE4=Going To Hell In Your Heavenly Arms
TTITLE5=Grandpa's Hologram
TTITLE6=Purple People Eater
TTITLE7=1984 Blues
TTITLE8=Lusters' Motel
TTITLE9=The Three Sinners
TTITLE10=That Godforsaken Hellhole I Call Home
EXTD=
EXTT0=
EXTT1=
EXTT2=
EXTT3=
EXTT4=
EXTT5=
EXTT6=
EXTT7=
EXTT8=
EXTT9=
EXTT10=
PLAYORDER=
